# xmcd
#
# Track frame offsets: 
#        150
#        14340
#        25284
#        42474
#        57370
#        72598
#        91646
#        106867
#        121604
#        135028
#        149813
#        167872
#
# Disc length: 2476 seconds
#
# Revision: 2
# Processed by: cddbd v1.5.1PL0 Copyright (c) Steve Scherf et al.
# Submitted via: ExactAudioCopy v0.95a5
#
DISCID=9f09aa0c
DTITLE=Fred Timm - Was macht eigentlich... Fred Timm?
DYEAR=2002
DGENRE=Chanson
TTITLE0=Nicht so gut
TTITLE1=Scheiß' auf Deine Ex
TTITLE2=Spaßbremsenfete bei Jörg 2002
TTITLE3=Herzblatt-Hubschrauber
TTITLE4=Nummer 2
TTITLE5=Carola
TTITLE6=Heute sag' ich nein
TTITLE7=Montag
TTITLE8=Nadine hat Fachabitur
TTITLE9=Französische Kleinstadt
TTITLE10=Pärchen
TTITLE11=Morgenlatte
EXTD=
EXTT0=
EXTT1=
EXTT2=
EXTT3=
EXTT4=
EXTT5=
EXTT6=
EXTT7=
EXTT8=
EXTT9=
EXTT10=
EXTT11=
PLAYORDER=
